<?xml version="1.0" standalone="no"?>
<!DOCTYPE svg PUBLIC "-//W3C//DTD SVG 1.1//EN" "http://www.w3.org/Graphics/SVG/1.1/DTD/svg11.dtd">
<svg xmlns="http://www.w3.org/2000/svg" id="Layer_2" data-name="Layer 2" viewBox="0 0 1263.18 1535.73" width="1263.1800537109375" height="1535.72998046875">
  <defs>
    <style>
      .cls-1 {
        fill: #000;
      }
    </style>
  </defs>
  <g id="Layer_1-2" data-name="Layer 1">
    <g>
      <path class="cls-1" d="M617.42,1025.77c-20.18-10.13-43.9-11.44-65.08-3.6-26.81,9.92-46.34,33.21-51.82,60.85l-60.2,22.26c-3.82,1.41-7.8,2.12-11.8,2.12-7.83,0-15.46-2.76-21.49-7.77-9.24-7.68-13.74-19.82-11.74-31.66l10.67-62.3c26.24-10.48,45.58-34.02,50.37-62.24,3.82-22.24-1.83-45.31-15.5-63.28-13.88-18.24-34.14-29.56-57.04-31.85-39.83-4.02-77.33,22.18-87.25,60.92-7.68,30,2.39,61.74,25.2,81.88l-10.83,63.39c-.94,5.58-3.33,10.79-7,15.17-3.53,4.29-8.23,7.62-13.56,9.6-11.81,4.36-25.11,1.49-33.89-7.32-83.89-84.08-131.98-200.31-131.93-318.88,0-173.9,97.17-329.39,253.59-405.8,11.7-5.73,23.79-10.97,36.11-15.7,17.81,19.94,43.7,32.51,72.54,32.51,53.7,0,97.23-43.53,97.23-97.23s-43.53-97.23-97.23-97.23c-47.58,0-87.14,34.18-95.56,79.31-17.09,6.27-34.04,13.48-50.61,21.55-89.03,43.5-164.29,110.73-217.64,194.44-54.86,86.06-83.85,185.7-83.85,288.08-.69,144.97,59.21,285.91,164.3,386.65,6.75,6.51,10.61,15.63,10.61,25.02,0,1.97-.17,3.96-.51,5.95-2.09,12.26-10.64,22.56-22.31,26.88l-58.83,21.78c-22.16-17.37-52.16-22.31-78.95-12.41-21.08,7.81-38.19,24.17-46.93,44.89-8.88,21.02-8.65,44.13.64,65.1,13.32,29.97,43.3,48.48,74.88,48.48,7.3,0,14.69-.99,21.98-3.05,29.76-8.4,52.12-33.02,58.06-62.86l59.52-22.03c3.76-1.4,7.69-2.11,11.66-2.11,7.86,0,15.52,2.77,21.61,7.84,9.23,7.63,13.7,19.74,11.66,31.6l-10.82,63.4c-26.08,10.53-45.28,34-50.03,62.05-3.82,22.23,1.83,45.29,15.48,63.26,13.87,18.26,34.13,29.6,57.08,31.93,2.67.26,5.32.4,7.95.4,36.82,0,70.1-25.29,79.28-61.47,7.68-30.12-2.5-61.89-25.49-81.98l10.76-63.14c1.03-5.9,3.57-11.42,7.29-15.92,3.83-4.59,8.76-8.08,14.32-10.11,11.23-4.17,23.96-1.98,33.21,5.71l49.65,41.21c-3.97,27.87,6.75,56.3,28.72,74.55,17.32,14.38,40.06,21.01,62.4,18.22,22.65-2.84,42.55-14.6,56.03-33.13,22.58-31.02,18.42-79.82-9.11-106.58-22.2-21.54-54.7-28.58-83.48-18.82l-49.66-41.22c-7.74-6.42-12.19-15.86-12.19-25.91,0-1.88.17-3.79.52-5.78,2-11.83,10.25-21.77,21.54-25.94l60.23-22.31c23.97,18.8,57.04,22.9,85.18,9.82h0c36.3-16.88,55.17-58.56,43.89-96.96-6.5-22.1-21.36-39.93-41.84-50.21Z"/>
      <path class="cls-1" d="M1072.03,338.22l58.83-21.78c23.99,18.82,57.06,22.92,85.19,9.82,36.29-16.88,55.16-58.58,43.88-97.01-6.5-22.07-21.35-39.88-41.83-50.16-20.19-10.13-43.91-11.44-65.08-3.6-26.76,9.91-46.29,33.2-51.8,60.84l-59.49,21.98c-11.35,4.18-24.15,1.91-33.24-5.65-9.27-7.7-13.77-19.83-11.74-31.67l10.82-63.35c26.06-10.52,45.28-33.98,50.08-62.08,3.79-22.28-1.89-45.38-15.58-63.35-13.88-18.22-34.13-29.52-57.01-31.82-39.88-4.02-77.4,22.24-87.26,61.09-7.64,30.09,2.54,61.85,25.49,81.95l-10.78,63.2c-.97,5.78-3.5,11.27-7.31,15.86-3.82,4.6-8.72,8.1-14.19,10.1-11.32,4.15-24.08,1.97-33.31-5.69l-49.66-41.21c3.98-27.93-6.74-56.39-28.72-74.6-17.3-14.35-40.02-21-62.35-18.2-22.66,2.83-42.57,14.58-56.08,33.12-23.76,32.64-19.84,78.45,9.09,106.56,22.17,21.57,54.68,28.63,83.49,18.87l49.64,41.2c7.76,6.47,12.21,15.95,12.21,26.03,0,2.02-.15,3.82-.46,5.59-2.04,11.88-10.31,21.86-21.59,26.03l-60.23,22.27c-22.15-17.39-52.13-22.33-78.91-12.42-21.12,7.81-38.24,24.18-46.99,44.92-8.87,21.02-8.62,44.13.68,65.05,13.28,29.98,43.23,48.5,74.82,48.49,7.31,0,14.71-.99,22.01-3.06,29.75-8.44,52.09-33.06,58.03-62.85l60.21-22.3c11.45-4.22,24.18-1.88,33.29,5.69,9.24,7.68,13.74,19.8,11.73,31.63l-10.62,62.32c-26.25,10.45-45.61,33.97-50.42,62.22-3.8,22.28,1.88,45.37,15.58,63.36,13.88,18.22,34.13,29.52,57.03,31.82,39.82,3.95,77.28-22.26,87.18-60.97,7.69-30.04-2.37-61.77-25.2-81.85l10.81-63.32c.98-5.61,3.4-10.86,7.02-15.22,3.52-4.28,8.23-7.6,13.6-9.61,11.76-4.38,25.07-1.5,33.9,7.33,83.86,84.1,131.93,200.31,131.89,318.84,0,173.95-97.17,329.46-253.58,405.84-11.53,5.63-23.34,10.76-35.3,15.37-17.81-20.02-43.75-32.64-72.65-32.64-53.7,0-97.23,43.53-97.23,97.23s43.53,97.23,97.23,97.23c47.51,0,87.04-34.09,95.52-79.13,16.98-6.25,33.7-13.38,49.92-21.31,89-43.43,164.28-110.67,217.69-194.45,54.83-86.01,83.8-185.65,83.8-288.15,0-75.64-15.44-148.84-45.9-217.56-28.28-63.78-68.14-120.65-118.48-169.05-6.7-6.43-10.54-15.52-10.54-24.95,0-1.98.17-3.97.51-5.95,2.09-12.29,10.64-22.61,22.31-26.92Z"/>
    </g>
  </g>
</svg>
